<svg xmlns="http://www.w3.org/2000/svg" viewBox="0 0 16 16" width="16" height="16" shape-rendering="crispEdges"><rect x="7" y="2" width="2" height="1" fill="#1e2f25"/><rect x="6" y="3" width="1" height="1" fill="#1e2f25"/><rect x="7" y="3" width="2" height="1" fill="#c0392b"/><rect x="9" y="3" width="1" height="1" fill="#1e2f25"/><rect x="12" y="3" width="2" height="1" fill="#1e2f25"/><rect x="5" y="4" width="1" height="1" fill="#1e2f25"/><rect x="6" y="4" width="4" height="1" fill="#c0392b"/><rect x="10" y="4" width="1" height="1" fill="#1e2f25"/><rect x="12" y="4" width="1" height="1" fill="#1e2f25"/><rect x="13" y="4" width="1" height="1" fill="#6b4a2f"/><rect x="14" y="4" width="1" height="1" fill="#1e2f25"/><rect x="4" y="5" width="1" height="1" fill="#1e2f25"/><rect x="5" y="5" width="6" height="1" fill="#c0392b"/><rect x="11" y="5" width="2" height="1" fill="#1e2f25"/><rect x="13" y="5" width="1" height="1" fill="#6b4a2f"/><rect x="14" y="5" width="1" height="1" fill="#1e2f25"/><rect x="3" y="6" width="1" height="1" fill="#1e2f25"/><rect x="4" y="6" width="8" height="1" fill="#c0392b"/><rect x="12" y="6" width="1" height="1" fill="#1e2f25"/><rect x="13" y="6" width="1" height="1" fill="#6b4a2f"/><rect x="14" y="6" width="1" height="1" fill="#1e2f25"/><rect x="2" y="7" width="1" height="1" fill="#1e2f25"/><rect x="3" y="7" width="10" height="1" fill="#c0392b"/><rect x="13" y="7" width="2" height="1" fill="#1e2f25"/><rect x="1" y="8" width="14" height="1" fill="#1e2f25"/><rect x="2" y="9" width="1" height="1" fill="#1e2f25"/><rect x="3" y="9" width="11" height="1" fill="#f3ead2"/><rect x="14" y="9" width="1" height="1" fill="#1e2f25"/><rect x="2" y="10" width="1" height="1" fill="#1e2f25"/><rect x="3" y="10" width="1" height="1" fill="#f3ead2"/><rect x="4" y="10" width="3" height="1" fill="#1e2f25"/><rect x="7" y="10" width="4" height="1" fill="#f3ead2"/><rect x="11" y="10" width="4" height="1" fill="#1e2f25"/><rect x="2" y="11" width="1" height="1" fill="#1e2f25"/><rect x="3" y="11" width="1" height="1" fill="#f3ead2"/><rect x="4" y="11" width="1" height="1" fill="#1e2f25"/><rect x="5" y="11" width="2" height="1" fill="#e4a84b"/><rect x="7" y="11" width="1" height="1" fill="#1e2f25"/><rect x="8" y="11" width="2" height="1" fill="#f3ead2"/><rect x="10" y="11" width="1" height="1" fill="#1e2f25"/><rect x="11" y="11" width="2" height="1" fill="#6b4a2f"/><rect x="13" y="11" width="1" height="1" fill="#1e2f25"/><rect x="2" y="12" width="1" height="1" fill="#1e2f25"/><rect x="3" y="12" width="1" height="1" fill="#f3ead2"/><rect x="4" y="12" width="1" height="1" fill="#1e2f25"/><rect x="5" y="12" width="2" height="1" fill="#e4a84b"/><rect x="7" y="12" width="1" height="1" fill="#1e2f25"/><rect x="8" y="12" width="2" height="1" fill="#f3ead2"/><rect x="10" y="12" width="1" height="1" fill="#1e2f25"/><rect x="11" y="12" width="2" height="1" fill="#6b4a2f"/><rect x="13" y="12" width="1" height="1" fill="#1e2f25"/><rect x="2" y="13" width="1" height="1" fill="#1e2f25"/><rect x="3" y="13" width="1" height="1" fill="#f3ead2"/><rect x="4" y="13" width="4" height="1" fill="#1e2f25"/><rect x="8" y="13" width="2" height="1" fill="#f3ead2"/><rect x="10" y="13" width="1" height="1" fill="#1e2f25"/><rect x="11" y="13" width="2" height="1" fill="#6b4a2f"/><rect x="13" y="13" width="1" height="1" fill="#1e2f25"/><rect x="2" y="14" width="13" height="1" fill="#1e2f25"/></svg>