<svg xmlns="http://www.w3.org/2000/svg" viewBox="0 0 16 16" width="16" height="16" shape-rendering="crispEdges"><rect x="1" y="3" width="5" height="1" fill="#1e2f25"/><rect x="10" y="3" width="5" height="1" fill="#1e2f25"/><rect x="0" y="4" width="1" height="1" fill="#1e2f25"/><rect x="1" y="4" width="5" height="1" fill="#fffdf5"/><rect x="6" y="4" width="1" height="1" fill="#1e2f25"/><rect x="9" y="4" width="1" height="1" fill="#1e2f25"/><rect x="10" y="4" width="5" height="1" fill="#fffdf5"/><rect x="15" y="4" width="1" height="1" fill="#1e2f25"/><rect x="0" y="5" width="1" height="1" fill="#1e2f25"/><rect x="1" y="5" width="1" height="1" fill="#fffdf5"/><rect x="2" y="5" width="3" height="1" fill="#a9a395"/><rect x="5" y="5" width="2" height="1" fill="#fffdf5"/><rect x="7" y="5" width="2" height="1" fill="#1e2f25"/><rect x="9" y="5" width="1" height="1" fill="#fffdf5"/><rect x="10" y="5" width="4" height="1" fill="#a9a395"/><rect x="14" y="5" width="1" height="1" fill="#fffdf5"/><rect x="15" y="5" width="1" height="1" fill="#1e2f25"/><rect x="0" y="6" width="1" height="1" fill="#1e2f25"/><rect x="1" y="6" width="6" height="1" fill="#fffdf5"/><rect x="7" y="6" width="2" height="1" fill="#1e2f25"/><rect x="9" y="6" width="6" height="1" fill="#fffdf5"/><rect x="15" y="6" width="1" height="1" fill="#1e2f25"/><rect x="0" y="7" width="1" height="1" fill="#1e2f25"/><rect x="1" y="7" width="1" height="1" fill="#fffdf5"/><rect x="2" y="7" width="4" height="1" fill="#a9a395"/><rect x="6" y="7" width="1" height="1" fill="#fffdf5"/><rect x="7" y="7" width="2" height="1" fill="#1e2f25"/><rect x="9" y="7" width="1" height="1" fill="#fffdf5"/><rect x="10" y="7" width="3" height="1" fill="#a9a395"/><rect x="13" y="7" width="2" height="1" fill="#fffdf5"/><rect x="15" y="7" width="1" height="1" fill="#1e2f25"/><rect x="0" y="8" width="1" height="1" fill="#1e2f25"/><rect x="1" y="8" width="6" height="1" fill="#fffdf5"/><rect x="7" y="8" width="2" height="1" fill="#1e2f25"/><rect x="9" y="8" width="6" height="1" fill="#fffdf5"/><rect x="15" y="8" width="1" height="1" fill="#1e2f25"/><rect x="0" y="9" width="1" height="1" fill="#1e2f25"/><rect x="1" y="9" width="1" height="1" fill="#fffdf5"/><rect x="2" y="9" width="3" height="1" fill="#a9a395"/><rect x="5" y="9" width="2" height="1" fill="#fffdf5"/><rect x="7" y="9" width="2" height="1" fill="#1e2f25"/><rect x="9" y="9" width="1" height="1" fill="#fffdf5"/><rect x="10" y="9" width="4" height="1" fill="#a9a395"/><rect x="14" y="9" width="1" height="1" fill="#fffdf5"/><rect x="15" y="9" width="1" height="1" fill="#1e2f25"/><rect x="0" y="10" width="1" height="1" fill="#1e2f25"/><rect x="1" y="10" width="6" height="1" fill="#fffdf5"/><rect x="7" y="10" width="2" height="1" fill="#1e2f25"/><rect x="9" y="10" width="6" height="1" fill="#fffdf5"/><rect x="15" y="10" width="1" height="1" fill="#1e2f25"/><rect x="0" y="11" width="6" height="1" fill="#1e2f25"/><rect x="6" y="11" width="1" height="1" fill="#fffdf5"/><rect x="7" y="11" width="2" height="1" fill="#1e2f25"/><rect x="9" y="11" width="1" height="1" fill="#fffdf5"/><rect x="10" y="11" width="6" height="1" fill="#1e2f25"/><rect x="1" y="12" width="1" height="1" fill="#1e2f25"/><rect x="2" y="12" width="4" height="1" fill="#3a6f9c"/><rect x="6" y="12" width="4" height="1" fill="#1e2f25"/><rect x="10" y="12" width="4" height="1" fill="#3a6f9c"/><rect x="14" y="12" width="1" height="1" fill="#1e2f25"/><rect x="2" y="13" width="5" height="1" fill="#1e2f25"/><rect x="9" y="13" width="5" height="1" fill="#1e2f25"/></svg>